# This file uses centimeters as units for non-parametric coordinates.

mtllib TurretCasing.mtl
v -1.519033 -1.084078 1.285352
v 1.401812 -1.084078 1.285352
v -1.519033 1.240010 1.285352
v 1.401812 1.240010 1.285352
v -1.519033 1.240010 -1.285352
v 1.401812 1.240010 -1.285352
v -1.519033 -1.084078 -1.285352
v 1.401812 -1.084078 -1.285352
v -1.519033 0.998307 1.076629
v -1.519033 -1.084078 1.076629
v 1.438528 -1.084078 1.076629
v 1.438528 0.998307 1.076629
v -1.519033 0.998307 -1.052218
v -1.519033 -1.084078 -1.052218
v 1.438528 -1.084078 -1.052218
v 1.438528 0.998307 -1.052218
v 1.710145 -1.084078 1.076629
v 1.710145 -1.084078 1.285352
v 1.979984 0.998307 1.076629
v 1.979984 1.240010 1.285352
v 1.979984 0.998307 -1.052218
v 1.979984 1.240010 -1.285352
v 1.710145 -1.084078 -1.052218
v 1.710145 -1.084078 -1.285352
v -1.911537 -1.084078 1.076629
v -1.911537 -1.084078 1.285352
v -1.911537 1.240010 1.285352
v -1.911537 0.998307 1.076629
v -1.911537 0.998307 -1.052218
v -1.911537 1.240010 -1.285352
v -1.911537 -1.084078 -1.285352
v -1.911537 -1.084078 -1.052218
v -0.857586 1.240010 -1.285352
v 0.231916 1.240010 -1.285352
v 1.438528 -0.667445 -0.626289
v 1.438528 -0.681381 0.636764
v 1.438528 0.595609 -0.612353
v 1.438528 0.581672 0.650701
v 1.438528 -0.936000 0.002351
v 1.438528 -0.033031 -0.880908
v 1.438528 0.850227 0.022060
v 1.438528 -0.052741 0.905319
v 2.118844 -0.936000 0.002351
v 2.118844 -0.681381 0.636764
v 2.118844 -0.667445 -0.626289
v 2.118844 -0.033031 -0.880908
v 2.118844 0.595609 -0.612353
v 2.118844 0.850227 0.022060
v 2.118844 0.581672 0.650701
v 2.118844 -0.052741 0.905319
v 2.118844 -0.798249 0.003871
v 2.118844 -0.582902 0.540434
v 2.118844 -0.571115 -0.527810
v 2.118844 -0.034551 -0.743157
v 2.118844 0.497130 -0.516023
v 2.118844 0.712476 0.020540
v 2.118844 0.485342 0.552221
v 2.118844 -0.051221 0.767568
v 1.606349 -0.798249 0.003871
v 1.606349 -0.582902 0.540434
v 1.606349 -0.571115 -0.527810
v 1.606349 -0.034551 -0.743157
v 1.606349 0.497130 -0.516023
v 1.606349 0.712476 0.020540
v 1.606349 0.485342 0.552221
v 1.606349 -0.051221 0.767568
v 1.606349 -0.042886 0.012205
v -1.519033 -0.779949 -0.741303
v -1.519033 -0.779949 0.765714
v -1.519033 0.694177 0.765714
v -1.519033 0.694177 -0.741303
v -1.799439 -0.779949 -0.741303
v -1.799439 -0.779949 0.765714
v -1.799439 0.694177 0.765714
v -1.799439 0.694177 -0.741303
v 0.231916 -0.532792 -1.285352
v -0.857586 -0.532792 -1.285352
v -0.857586 1.240010 -1.695076
v 0.231916 1.240010 -1.695076
v 0.231916 1.240010 -0.529715
v -0.857586 1.240010 -0.529715
v -0.857586 1.579123 -0.753605
v 0.231916 1.579123 -0.753605
v 0.231916 1.579123 -1.695076
v -0.857586 1.579123 -1.695076
v -0.389671 1.579123 -0.930653
v -0.236000 1.579123 -0.930653
v -0.236000 1.579123 -1.063446
v -0.389671 1.579123 -1.063446
v -0.341556 3.255721 -0.972231
v -0.284114 3.255721 -0.972231
v -0.284114 3.255721 -1.021868
v -0.341556 3.255721 -1.021868
v -0.393559 3.294614 -0.927293
v -0.232112 3.294614 -0.927293
v -0.232112 3.294614 -1.066805
v -0.393559 3.294614 -1.066805
v -0.312835 3.409566 -0.997049
vt 0.074592 0.077244
vt 0.114817 0.061924
vt 0.114192 0.115660
vt 0.154676 0.078082
vt 0.057564 0.115067
vt 0.170820 0.116253
vt 0.073709 0.153237
vt 0.153792 0.154076
vt 0.113568 0.169395
vt 0.236723 0.061186
vt 0.261311 0.050271
vt 0.261253 0.056176
vt 0.240456 0.065408
vt 0.285677 0.061784
vt 0.281860 0.065914
vt 0.226314 0.088137
vt 0.231653 0.088202
vt 0.295545 0.088982
vt 0.290206 0.088917
vt 0.236183 0.115335
vt 0.239999 0.111205
vt 0.285136 0.115933
vt 0.281403 0.111711
vt 0.260548 0.126848
vt 0.260607 0.120943
vt 0.333203 0.153895
vt 0.333203 0.129306
vt 0.356410 0.129306
vt 0.356410 0.153895
vt 0.333203 0.104941
vt 0.356410 0.104941
vt 0.309195 0.153895
vt 0.309195 0.129306
vt 0.332402 0.129306
vt 0.332402 0.153895
vt 0.309195 0.104941
vt 0.332402 0.104941
vt 0.271826 0.127370
vt 0.271826 0.148166
vt 0.254343 0.148166
vt 0.254343 0.127370
vt 0.271826 0.168773
vt 0.254343 0.168773
vt 0.253542 0.127370
vt 0.253542 0.148166
vt 0.236060 0.148166
vt 0.236060 0.127370
vt 0.253542 0.168773
vt 0.236060 0.168773
vt 0.296599 0.104419
vt 0.296599 0.077221
vt 0.319806 0.077221
vt 0.319806 0.104419
vt 0.296599 0.050271
vt 0.319806 0.050271
vt 0.320783 0.104419
vt 0.320783 0.077221
vt 0.343990 0.077221
vt 0.343990 0.104419
vt 0.320783 0.050271
vt 0.343990 0.050271
vt 0.308393 0.127370
vt 0.308393 0.150373
vt 0.290911 0.150373
vt 0.290911 0.127370
vt 0.308393 0.173167
vt 0.290911 0.173167
vt 0.290109 0.127370
vt 0.290109 0.150373
vt 0.272627 0.150373
vt 0.272627 0.127370
vt 0.290109 0.173167
vt 0.272627 0.173167
vt 0.023086 0.026468
vt 0.203828 0.026486
vt 0.167679 0.062629
vt 0.114297 0.039315
vt 0.060426 0.061419
vt 0.203834 0.207214
vt 0.166496 0.172275
vt 0.189300 0.117703
vt 0.023074 0.207234
vt 0.059242 0.171065
vt 0.112624 0.194379
vt 0.037621 0.115992
vt 0.521817 0.847385
vt 0.516992 0.846637
vt 0.516992 0.841111
vt 0.521817 0.841111
vt 0.521817 0.906811
vt 0.516992 0.906811
vt 0.521817 0.914797
vt 0.516992 0.914797
vt 0.527810 0.846637
vt 0.522421 0.847385
vt 0.522421 0.841111
vt 0.527810 0.841111
vt 0.527810 0.906811
vt 0.522421 0.906811
vt 0.527810 0.914797
vt 0.522421 0.914797
vt 0.576499 0.841111
vt 0.576499 0.890323
vt 0.568514 0.890323
vt 0.568514 0.841111
vt 0.588037 0.890323
vt 0.577021 0.890323
vt 0.577021 0.841111
vt 0.588037 0.841111
vt 0.536284 0.841111
vt 0.536284 0.894357
vt 0.528298 0.894357
vt 0.528298 0.841111
vt 0.536806 0.841111
vt 0.544791 0.841111
vt 0.544791 0.894357
vt 0.536806 0.894357
vt 0.545313 0.894357
vt 0.545313 0.841111
vt 0.550839 0.841111
vt 0.556329 0.894357
vt 0.562439 0.894357
vt 0.556913 0.894357
vt 0.556913 0.841111
vt 0.567929 0.841111
vt 0.196931 0.486153
vt 0.024517 0.486153
vt 0.049698 0.511333
vt 0.171750 0.511333
vt 0.024517 0.658567
vt 0.049698 0.633386
vt 0.196931 0.658567
vt 0.171750 0.633386
vt 0.259803 0.524585
vt 0.259803 0.629435
vt 0.242633 0.629435
vt 0.242633 0.524585
vt 0.277658 0.524585
vt 0.277658 0.629435
vt 0.260488 0.629435
vt 0.260488 0.524585
vt 0.224072 0.524585
vt 0.224072 0.638029
vt 0.206902 0.638029
vt 0.206902 0.524585
vt 0.241948 0.524585
vt 0.241948 0.638029
vt 0.224778 0.638029
vt 0.224778 0.524585
vt 0.159074 0.526654
vt 0.062218 0.526654
vt 0.062218 0.623509
vt 0.159074 0.623509
vt 0.022315 0.214905
vt 0.022315 0.479273
vt 0.198284 0.479273
vt 0.198284 0.214905
vt 0.421633 0.960324
vt 0.419708 0.960324
vt 0.420311 0.933430
vt 0.421030 0.933430
vt 0.419659 0.932806
vt 0.421682 0.932806
vt 0.420671 0.930962
vt 0.417174 0.960324
vt 0.415249 0.960324
vt 0.415852 0.933430
vt 0.416571 0.933430
vt 0.415200 0.932806
vt 0.417223 0.932806
vt 0.416211 0.930962
vt 0.423867 0.960324
vt 0.421906 0.960324
vt 0.422520 0.933430
vt 0.423253 0.933430
vt 0.421856 0.932806
vt 0.423917 0.932806
vt 0.422887 0.930962
vt 0.417442 0.930962
vt 0.419403 0.930962
vt 0.418789 0.957857
vt 0.418056 0.957857
vt 0.419453 0.958480
vt 0.417392 0.958480
vt 0.418422 0.960324
vt 0.815316 0.750670
vt 0.815316 0.880855
vt 0.788115 0.880855
vt 0.850619 0.905758
vt 0.788115 0.905758
vt 0.865483 0.880855
vt 0.917655 0.880855
vt 0.917655 0.750670
vt 0.944856 0.880855
vt 0.944856 0.905758
vt 0.882352 0.905758
vt 0.867488 0.880855
vt 0.906409 0.921613
vt 0.970070 0.921613
vt 0.942729 0.933367
vt 0.933749 0.933367
vt 0.906409 0.906749
vt 0.970070 0.906749
vt 0.970070 0.984117
vt 0.942729 0.942183
vt 0.906409 0.984117
vt 0.933749 0.942183
vt 0.786390 0.905758
vt 0.722729 0.905758
vt 0.722729 0.775573
vt 0.786390 0.775573
vt 0.722729 0.750670
vt 0.786390 0.750670
vt 0.498612 0.830177
vt 0.488007 0.830177
vt 0.488007 0.960794
vt 0.498612 0.947209
vt 0.618623 0.830177
vt 0.606778 0.830177
vt 0.606778 0.947209
vt 0.618623 0.960794
vt 0.606778 0.947209
vt 0.606778 0.830177
vt 0.618623 0.830177
vt 0.618623 0.960794
vt 0.488007 0.830177
vt 0.498612 0.830177
vt 0.498612 0.947209
vt 0.488007 0.960794
vt 0.446970 0.349858
vt 0.446970 0.032325
vt 0.388757 0.032325
vt 0.388757 0.349858
vt 0.545069 0.349858
vt 0.545069 0.107646
vt 0.880162 0.032325
vt 0.706654 0.107646
vt 0.706654 0.349858
vt 0.880162 0.349858
vt 0.925891 0.032325
vt 0.965910 0.349858
vt 0.388757 0.032751
vt 0.446970 0.032751
vt 0.446970 0.349432
vt 0.388757 0.349432
vt 0.880162 0.349432
vt 0.880162 0.032751
vt 0.925891 0.032751
vt 0.965910 0.349432
vt 0.880076 0.719711
vt 0.880076 0.358850
vt 0.966020 0.358850
vt 0.966020 0.719711
vt 0.706174 0.613639
vt 0.445898 0.358850
vt 0.544221 0.613639
vt 0.445898 0.719711
vt 0.387553 0.358850
vt 0.387553 0.719711
vt 0.706174 0.719711
vt 0.544221 0.719711
vn 0.000000 -1.000000 0.000000
vn 0.000000 -1.000000 0.000000
vn 0.000000 -1.000000 0.000000
vn 0.000000 -1.000000 0.000000
vn 0.000000 -1.000000 -0.000000
vn 0.000000 -1.000000 -0.000000
vn 0.000000 -1.000000 -0.000000
vn 0.000000 -1.000000 -0.000000
vn 0.000000 -1.000000 0.000000
vn 0.000000 -1.000000 0.000000
vn 0.000000 -1.000000 0.000000
vn 0.000000 -1.000000 0.000000
vn 0.000000 -1.000000 0.000000
vn 0.000000 -1.000000 0.000000
vn 0.000000 -1.000000 0.000000
vn 0.000000 -1.000000 0.000000
vn 0.000000 0.000000 1.000000
vn 0.000000 0.000000 1.000000
vn 0.000000 0.000000 1.000000
vn 0.000000 0.000000 1.000000
vn -1.000000 0.000000 0.000000
vn -1.000000 0.000000 0.000000
vn -1.000000 0.000000 0.000000
vn -1.000000 0.000000 0.000000
vn 0.000000 0.000000 -1.000000
vn 0.000000 0.000000 -1.000000
vn 0.000000 0.000000 -1.000000
vn 0.000000 0.000000 -1.000000
vn 0.000000 0.000000 1.000000
vn 0.000000 0.000000 1.000000
vn 0.000000 0.000000 1.000000
vn 0.000000 0.000000 1.000000
vn -1.000000 0.000000 0.000000
vn -1.000000 0.000000 0.000000
vn -1.000000 0.000000 0.000000
vn -1.000000 0.000000 0.000000
vn 0.000000 0.000000 -1.000000
vn 0.000000 0.000000 -1.000000
vn 0.000000 0.000000 -1.000000
vn 0.000000 0.000000 -1.000000
vn 0.000000 0.000000 -1.000000
vn 0.000000 0.000000 -1.000000
vn -0.000000 0.000000 -1.000000
vn -0.000000 0.000000 -1.000000
vn -0.000000 0.000000 -1.000000
vn -0.000000 0.000000 -1.000000
vn 0.000000 0.000000 -1.000000
vn 0.000000 0.000000 -1.000000
vn 0.000000 0.000000 -1.000000
vn 0.000000 0.000000 -1.000000
vn 0.997735 -0.059723 -0.030959
vn 0.990618 -0.121325 -0.062892
vn 0.990618 -0.121325 -0.062892
vn 0.998218 -0.052985 -0.027466
vn 0.000000 0.000000 1.000000
vn 0.000000 0.000000 1.000000
vn 0.000000 0.000000 1.000000
vn 0.000000 0.000000 1.000000
vn 0.000000 0.000000 -1.000000
vn 0.000000 0.000000 -1.000000
vn 0.000000 0.000000 -1.000000
vn 0.000000 0.000000 -1.000000
vn 0.990134 -0.121265 0.070213
vn 0.990134 -0.121265 0.070213
vn 0.997771 -0.057752 0.033439
vn 0.998607 -0.045671 0.026444
vn 0.000000 0.000000 1.000000
vn 0.000000 0.000000 1.000000
vn 0.000000 0.000000 1.000000
vn 0.000000 0.000000 1.000000
vn 0.000000 -1.000000 0.000000
vn 0.000000 -1.000000 0.000000
vn 0.000000 -1.000000 0.000000
vn 0.000000 -1.000000 0.000000
vn -0.982385 -0.186868 0.000000
vn -0.982385 -0.186868 0.000000
vn -1.000000 0.000000 0.000000
vn -1.000000 0.000000 0.000000
vn 0.000000 -1.000000 0.000000
vn 0.000000 -1.000000 0.000000
vn 0.000000 -1.000000 0.000000
vn 0.000000 -1.000000 0.000000
vn 0.000000 1.000000 0.000000
vn 0.000000 1.000000 0.000000
vn 0.000000 1.000000 0.000000
vn 0.000000 1.000000 0.000000
vn 0.000000 1.000000 0.000000
vn 0.000000 1.000000 0.000000
vn 0.000000 1.000000 0.000000
vn 0.000000 1.000000 0.000000
vn 0.000000 1.000000 0.000000
vn 0.000000 1.000000 0.000000
vn 0.000000 1.000000 0.000000
vn 0.000000 1.000000 0.000000
vn 0.000000 -0.225181 -0.974317
vn 0.000000 -0.225181 -0.974317
vn 0.000000 -0.225181 -0.974317
vn 0.000000 -0.225181 -0.974317
vn 0.000000 -1.000000 0.000000
vn 0.000000 -1.000000 0.000000
vn 0.000000 -1.000000 0.000000
vn 0.000000 -1.000000 0.000000
vn 0.000000 0.000000 1.000000
vn 0.000000 0.000000 1.000000
vn 1.000000 0.000000 0.000000
vn 1.000000 0.000000 0.000000
vn 1.000000 0.000000 0.000000
vn 1.000000 0.000000 0.000000
vn 1.000000 0.000000 0.000000
vn 1.000000 -0.000000 0.000000
vn 1.000000 -0.000000 0.000000
vn 1.000000 0.000000 0.000000
vn 1.000000 -0.000000 0.000000
vn 1.000000 -0.000000 0.000000
vn 1.000000 -0.000000 0.000000
vn 1.000000 0.000000 0.000000
vn 0.000000 -0.928046 0.372467
vn 0.000000 -0.928046 0.372467
vn 0.000000 -0.928046 0.372467
vn 0.000000 -0.928046 0.372467
vn 0.000000 -0.919602 -0.392852
vn 0.000000 -0.919602 -0.392852
vn 0.000000 -0.919602 -0.392852
vn 0.000000 -0.919602 -0.392852
vn 0.000000 -0.372466 -0.928046
vn 0.000000 -0.372466 -0.928046
vn 0.000000 -0.372466 -0.928046
vn 0.000000 -0.372466 -0.928046
vn 0.000000 0.392853 -0.919601
vn 0.000000 0.392853 -0.919601
vn 0.000000 0.392853 -0.919601
vn 0.000000 0.392853 -0.919601
vn 0.000000 0.928046 -0.372466
vn 0.000000 0.928046 -0.372466
vn 0.000000 0.928046 -0.372466
vn 0.000000 0.928046 -0.372466
vn 0.000000 0.919601 0.392854
vn 0.000000 0.919601 0.392854
vn 0.000000 0.919601 0.392854
vn 0.000000 0.919601 0.392854
vn 0.000000 0.372467 0.928046
vn 0.000000 0.372467 0.928046
vn 0.000000 0.372467 0.928046
vn 0.000000 0.372467 0.928046
vn 0.000000 -0.392853 0.919601
vn 0.000000 -0.392853 0.919601
vn 0.000000 -0.392853 0.919601
vn 0.000000 -0.392853 0.919601
vn 1.000000 -0.000001 0.000000
vn 1.000000 -0.000001 0.000000
vn 1.000000 -0.000001 0.000000
vn 1.000000 -0.000001 0.000000
vn 1.000000 0.000001 0.000000
vn 1.000000 0.000001 0.000000
vn 1.000000 0.000001 0.000000
vn 1.000000 0.000001 0.000000
vn 1.000000 -0.000000 0.000000
vn 1.000000 -0.000000 0.000000
vn 1.000000 -0.000000 0.000000
vn 1.000000 -0.000000 0.000000
vn 1.000000 -0.000001 0.000000
vn 1.000000 -0.000001 0.000000
vn 1.000000 -0.000001 0.000000
vn 1.000000 -0.000001 0.000000
vn 1.000000 -0.000001 0.000000
vn 1.000000 -0.000001 0.000000
vn 1.000000 -0.000001 0.000000
vn 1.000000 -0.000001 0.000000
vn 1.000000 -0.000000 0.000000
vn 1.000000 -0.000000 0.000000
vn 1.000000 -0.000000 0.000000
vn 1.000000 -0.000000 0.000000
vn 1.000000 0.000000 0.000000
vn 1.000000 0.000000 0.000000
vn 1.000000 0.000000 0.000000
vn 1.000000 0.000000 0.000000
vn 1.000000 -0.000001 0.000000
vn 1.000000 -0.000001 0.000000
vn 1.000000 -0.000001 0.000000
vn 1.000000 -0.000001 0.000000
vn 0.000000 0.928046 -0.372467
vn 0.000000 0.928046 -0.372467
vn 0.000000 0.928046 -0.372467
vn 0.000000 0.928046 -0.372467
vn 0.000000 0.919601 0.392852
vn 0.000000 0.919601 0.392852
vn 0.000000 0.919601 0.392852
vn 0.000000 0.919601 0.392852
vn 0.000000 0.372466 0.928046
vn 0.000000 0.372466 0.928046
vn 0.000000 0.372466 0.928046
vn 0.000000 0.372466 0.928046
vn 0.000000 -0.392853 0.919601
vn 0.000000 -0.392853 0.919601
vn 0.000000 -0.392853 0.919601
vn 0.000000 -0.392853 0.919601
vn 0.000000 -0.928046 0.372466
vn 0.000000 -0.928046 0.372466
vn 0.000000 -0.928046 0.372466
vn 0.000000 -0.928046 0.372466
vn 0.000000 -0.919601 -0.392854
vn 0.000000 -0.919601 -0.392854
vn 0.000000 -0.919601 -0.392854
vn 0.000000 -0.919601 -0.392854
vn 0.000000 -0.372467 -0.928046
vn 0.000000 -0.372467 -0.928046
vn 0.000000 -0.372467 -0.928046
vn 0.000000 -0.372467 -0.928046
vn 0.000000 0.392853 -0.919601
vn 0.000000 0.392853 -0.919601
vn 0.000000 0.392853 -0.919601
vn 0.000000 0.392853 -0.919601
vn 1.000000 -0.000000 0.000000
vn 1.000000 -0.000000 0.000000
vn 1.000000 -0.000000 0.000000
vn 1.000000 -0.000000 0.000000
vn 1.000000 -0.000000 0.000000
vn 1.000000 -0.000000 0.000000
vn 1.000000 0.000000 0.000000
vn 1.000000 0.000000 0.000000
vn 1.000000 0.000000 0.000000
vn 1.000000 0.000000 0.000000
vn 1.000000 0.000000 0.000000
vn 1.000000 0.000000 0.000000
vn 1.000000 0.000000 0.000000
vn 1.000000 0.000000 0.000000
vn 1.000000 0.000000 0.000000
vn 1.000000 -0.000000 0.000000
vn 1.000000 -0.000000 0.000000
vn 1.000000 -0.000000 0.000000
vn 1.000000 0.000000 0.000000
vn 1.000000 0.000000 0.000000
vn 1.000000 0.000000 0.000000
vn 1.000000 0.000001 0.000000
vn 1.000000 0.000001 0.000000
vn 1.000000 0.000001 0.000000
vn -1.000000 0.000000 0.000000
vn -1.000000 0.000000 0.000000
vn -1.000000 0.000000 0.000000
vn -1.000000 0.000000 0.000000
vn -1.000000 0.000000 0.000000
vn -1.000000 0.000000 0.000000
vn -1.000000 0.000000 0.000000
vn -1.000000 0.000000 0.000000
vn -1.000000 0.000000 0.000000
vn -1.000000 0.000000 0.000000
vn -1.000000 0.000000 0.000000
vn -1.000000 0.000000 0.000000
vn -1.000000 0.000000 0.000000
vn -1.000000 0.000000 0.000000
vn -1.000000 0.000000 0.000000
vn -1.000000 0.000000 0.000000
vn 0.000000 -1.000000 0.000000
vn 0.000000 -1.000000 0.000000
vn 0.000000 0.000000 1.000000
vn 0.000000 0.000000 1.000000
vn 0.000000 0.000000 1.000000
vn 0.000000 0.000000 1.000000
vn 0.000000 1.000000 0.000000
vn 0.000000 1.000000 0.000000
vn 0.000000 1.000000 0.000000
vn 0.000000 1.000000 0.000000
vn 0.000000 0.000000 -1.000000
vn 0.000000 0.000000 -1.000000
vn 0.000000 0.000000 -1.000000
vn 0.000000 0.000000 -1.000000
vn -1.000000 0.000000 0.000000
vn -1.000000 0.000000 0.000000
vn -1.000000 0.000000 0.000000
vn 1.000000 0.000000 0.000000
vn 1.000000 0.000000 0.000000
vn 1.000000 0.000000 0.000000
vn 0.000000 1.000000 0.000000
vn 0.000000 0.550972 0.834524
vn 0.000000 0.550972 0.834524
vn 0.000000 0.550972 0.834524
vn 0.000000 0.550972 0.834524
vn 0.000000 1.000000 0.000000
vn 1.000000 0.000000 0.000000
vn 1.000000 0.000000 0.000000
vn 1.000000 0.000000 0.000000
vn 1.000000 0.000000 0.000000
vn 0.000000 0.000000 -1.000000
vn 0.000000 0.000000 -1.000000
vn 0.000000 0.000000 -1.000000
vn 0.000000 0.000000 -1.000000
vn -1.000000 0.000000 0.000000
vn -1.000000 0.000000 0.000000
vn -1.000000 0.000000 0.000000
vn -1.000000 0.000000 0.000000
vn -1.000000 0.000000 0.000000
vn -1.000000 0.000000 0.000000
vn -1.000000 0.000000 0.000000
vn 1.000000 0.000000 0.000000
vn 1.000000 0.000000 0.000000
vn 1.000000 0.000000 0.000000
vn 0.000000 1.000000 0.000000
vn 0.000000 1.000000 0.000000
vn 0.000000 1.000000 0.000000
vn 0.000000 1.000000 0.000000
vn 0.000000 1.000000 0.000000
vn 0.000000 1.000000 0.000000
vn 0.000000 1.000000 0.000000
vn 0.000000 1.000000 0.000000
vn 0.000000 1.000000 -0.000000
vn 0.000000 1.000000 -0.000000
vn 0.000000 1.000000 -0.000000
vn 0.000000 1.000000 -0.000000
vn 0.000000 1.000000 0.000000
vn 0.000000 1.000000 0.000000
vn 0.000000 1.000000 0.000000
vn 0.000000 1.000000 0.000000
vn 0.000000 0.024791 0.999693
vn 0.000000 0.024791 0.999693
vn 0.000000 0.024791 0.999693
vn 0.000000 0.024791 0.999693
vn 0.999588 0.028686 0.000000
vn 0.999588 0.028686 0.000000
vn 0.999588 0.028686 0.000000
vn 0.999588 0.028686 0.000000
vn 0.000000 0.024791 -0.999693
vn 0.000000 0.024791 -0.999693
vn 0.000000 0.024791 -0.999693
vn 0.000000 0.024791 -0.999693
vn -0.999588 0.028686 0.000000
vn -0.999588 0.028686 0.000000
vn -0.999588 0.028686 0.000000
vn -0.999588 0.028686 0.000000
vn 0.000000 -0.756132 0.654419
vn 0.000000 -0.756132 0.654419
vn 0.000000 -0.756132 0.654419
vn 0.000000 -0.756132 0.654419
vn 0.598921 -0.800808 0.000000
vn 0.598921 -0.800808 0.000000
vn 0.598921 -0.800808 0.000000
vn 0.598921 -0.800808 0.000000
vn 0.000000 -0.756132 -0.654419
vn 0.000000 -0.756132 -0.654419
vn 0.000000 -0.756132 -0.654419
vn 0.000000 -0.756132 -0.654419
vn -0.598921 -0.800808 0.000000
vn -0.598921 -0.800808 0.000000
vn -0.598921 -0.800808 0.000000
vn -0.598921 -0.800808 0.000000
vn 0.000000 0.518780 0.854908
vn 0.000000 0.518780 0.854908
vn 0.000000 0.518780 0.854908
vn 0.818371 0.574690 0.000000
vn 0.818371 0.574690 0.000000
vn 0.818371 0.574690 0.000000
vn 0.000000 0.518782 -0.854907
vn 0.000000 0.518782 -0.854907
vn 0.000000 0.518782 -0.854907
vn -0.818371 0.574690 0.000000
vn -0.818371 0.574690 0.000000
vn -0.818371 0.574690 0.000000
usemtl initialShadingGroup
f 2/86/1 11/87/2 17/88/3 18/89/4
f 15/94/5 8/95/6 24/96/7 23/97/8
f 10/91/9 1/90/10 26/92/11 25/93/12
f 7/99/13 14/98/14 32/100/15 31/101/16
f 26/242/17 1/243/18 3/244/19 27/245/20
f 25/214/21 26/215/22 27/216/23 28/217/24
f 9/110/25 10/111/26 25/112/27 28/113/28
f 32/114/29 14/115/30 13/116/31 29/117/32
f 31/218/33 32/219/34 29/220/35 30/221/36
f 5/230/37 7/231/38 31/232/39 30/233/40
f 5/230/37 33/234/41 77/235/42 7/231/38
f 8/236/43 76/237/44 34/238/45 6/239/46
f 24/240/47 8/236/48 6/239/49 22/241/50
f 21/222/51 23/223/52 24/224/53 22/225/54
f 16/118/55 15/119/56 23/120/57 21/121/58
f 17/122/59 11/123/60 12/124/61 19/125/62
f 18/226/63 17/227/64 19/228/65 20/229/66
f 4/246/67 2/247/68 18/248/69 20/249/70
f 29/220/35 28/217/24 27/216/23 30/221/36
f 13/102/71 9/103/72 28/104/73 29/105/74
f 72/150/75 73/151/76 74/152/77 75/153/78
f 19/106/79 12/107/80 16/108/81 21/109/82
f 20/229/66 19/228/65 21/222/51 22/225/54
f 6/250/83 4/251/84 20/252/85 22/253/86
f 4/251/87 6/250/88 80/254/89
f 3/255/90 81/256/91 5/257/92
f 27/258/93 3/255/90 5/257/92 30/259/94
f 81/256/91 3/255/90 4/251/87 80/254/89
f 76/208/95 77/209/96 78/210/97 79/211/98
f 14/98/14 7/99/13 8/95/99 15/94/100
f 11/154/101 10/155/9 14/156/14 15/157/100
f 1/90/10 10/91/9 11/87/101 2/86/102
f 3/244/19 1/243/18 2/247/103 4/246/104
f 11/74/105 15/75/106 35/76/107 39/77/108 36/78/109
f 15/75/106 16/79/110 37/80/111 40/81/112 35/76/107
f 16/79/110 12/82/113 38/83/114 41/84/115 37/80/111
f 12/82/113 11/74/105 36/78/109 42/85/116 38/83/114
f 36/26/117 39/27/118 43/28/119 44/29/120
f 39/27/121 35/30/122 45/31/123 43/28/124
f 35/50/125 40/51/126 46/52/127 45/53/128
f 40/51/129 37/54/130 47/55/131 46/52/132
f 37/32/133 41/33/134 48/34/135 47/35/136
f 41/33/137 38/36/138 49/37/139 48/34/140
f 38/56/141 42/57/142 50/58/143 49/59/144
f 42/57/145 36/60/146 44/61/147 50/58/148
f 44/10/149 43/11/150 51/12/151 52/13/152
f 43/11/153 45/14/154 53/15/155 51/12/156
f 45/14/157 46/18/158 54/19/159 53/15/160
f 46/18/161 47/22/162 55/23/163 54/19/164
f 47/22/165 48/24/166 56/25/167 55/23/168
f 48/24/169 49/20/170 57/21/171 56/25/172
f 49/20/173 50/16/174 58/17/175 57/21/176
f 50/16/177 44/10/178 52/13/179 58/17/180
f 52/38/181 51/39/182 59/40/183 60/41/184
f 51/39/185 53/42/186 61/43/187 59/40/188
f 53/62/189 54/63/190 62/64/191 61/65/192
f 54/63/193 55/66/194 63/67/195 62/64/196
f 55/44/197 56/45/198 64/46/199 63/47/200
f 56/45/201 57/48/202 65/49/203 64/46/204
f 57/68/205 58/69/206 66/70/207 65/71/208
f 58/69/209 52/72/210 60/73/211 66/70/212
f 60/1/213 59/2/214 67/3/215
f 59/2/216 61/4/217 67/3/218
f 61/4/219 62/6/220 67/3/221
f 62/6/222 63/8/223 67/3/224
f 63/8/225 64/9/226 67/3/227
f 64/9/228 65/7/229 67/3/230
f 65/7/231 66/5/232 67/3/233
f 66/5/234 60/1/235 67/3/236
f 14/126/237 10/127/238 69/128/239 68/129/240
f 10/127/241 9/130/242 70/131/243 69/128/244
f 9/130/245 13/132/246 71/133/247 70/131/248
f 13/132/249 14/126/250 68/129/251 71/133/252
f 68/134/253 69/135/254 73/136/76 72/137/75
f 69/142/255 70/143/256 74/144/257 73/145/258
f 70/138/259 71/139/260 75/140/261 74/141/262
f 71/146/263 68/147/264 72/148/265 75/149/266
f 8/236/43 7/231/38 77/235/42 76/237/44
f 77/186/267 33/187/268 78/188/269
f 34/192/270 76/193/271 79/194/272
f 80/254/89 6/250/88 34/260/273
f 82/198/274 81/202/275 80/203/276 83/199/277
f 5/257/92 81/256/91 33/261/278
f 34/192/279 79/194/280 84/195/281 83/196/282
f 79/211/283 78/210/284 85/212/285 84/213/286
f 78/188/287 33/187/288 82/189/289 85/190/290
f 33/187/291 81/191/292 82/189/293
f 80/197/294 34/192/295 83/196/296
f 82/198/297 83/199/298 87/200/299 86/201/300
f 83/199/301 84/204/302 88/205/303 87/200/304
f 84/204/305 85/206/306 89/207/307 88/205/308
f 85/206/309 82/198/310 86/201/311 89/207/312
f 86/172/313 87/173/314 91/174/315 90/175/316
f 87/158/317 88/159/318 92/160/319 91/161/320
f 88/179/321 89/180/322 93/181/323 92/182/324
f 89/165/325 86/166/326 90/167/327 93/168/328
f 90/175/329 91/174/330 95/176/331 94/177/332
f 91/161/333 92/160/334 96/162/335 95/163/336
f 92/182/337 93/181/338 97/183/339 96/184/340
f 93/168/341 90/167/342 94/169/343 97/170/344
f 94/177/345 95/176/346 98/178/347
f 95/163/348 96/162/349 98/164/350
f 96/184/351 97/183/352 98/185/353
f 97/170/354 94/169/355 98/171/356
